<svg xmlns="http://www.w3.org/2000/svg" width="169" height="84" viewBox="0 0 169 84"><g transform="translate(-932.05 -23.32)"><path d="M932.056,89.918h167.661V88.5H932.056v1.423Z" fill="#fff"/><path d="M932.084,107.179h8.5v-2.121h-6V93.94h-2.5v13.239Zm29.283-7.856h-5.533V95.983H961.7V93.94H953.33v13.239h8.677v-2.042h-6.173v-3.772h5.533V99.322Zm21.227,4.007,1.359,3.85h2.737L981.934,93.94h-3.26l-4.62,13.239h2.62l1.261-3.85Zm-4.232-1.886,1.165-3.338c.253-.786.447-1.571.66-2.3h.039c.213.707.446,1.512.737,2.3l1.184,3.338Zm21.073,5.736h2.484v-5.421h1.437c1.475.039,2.135.609,2.562,2.317a16.613,16.613,0,0,0,.952,3.1h2.563a31.43,31.43,0,0,1-1.125-3.752,3.432,3.432,0,0,0-1.864-2.493v-.06a3.5,3.5,0,0,0,2.485-3.3,3.319,3.319,0,0,0-1.184-2.651,6.572,6.572,0,0,0-4.291-1.1,26.686,26.686,0,0,0-4.017.294v13.062Zm2.484-11.333a8.615,8.615,0,0,1,1.747-.138c1.611,0,2.776.61,2.776,2.1,0,1.3-1.067,2.121-2.814,2.121h-1.709V95.845Zm22.508,11.333v-5.087c0-1.983-.018-3.693-.116-5.46l.077-.019a46.935,46.935,0,0,0,2.641,4.674l3.824,5.893h2.66V93.94h-2.33v4.91a46.847,46.847,0,0,0,.214,5.284l-.058.019a31.7,31.7,0,0,0-2.465-4.517l-3.786-5.7H1022.1v13.239Zm22.8-13.239v13.239h2.5V93.94Zm18.529,13.239v-5.087c0-1.983-.019-3.693-.116-5.46l.077-.019a47.289,47.289,0,0,0,2.64,4.674l3.825,5.893h2.658V93.94h-2.329v4.91a46.648,46.648,0,0,0,.213,5.284l-.058.019a31.781,31.781,0,0,0-2.465-4.517l-3.786-5.7h-2.989v13.239Zm34.505-7.347h-5.048V101.8h2.6v3.182a5.746,5.746,0,0,1-2.175.315c-3.164,0-5.163-1.964-5.163-4.792,0-2.848,2.116-4.655,5.262-4.655a8.041,8.041,0,0,1,3.474.648l.563-1.983a9.64,9.64,0,0,0-3.941-.707c-4.93,0-7.978,2.926-7.978,6.875a6.43,6.43,0,0,0,1.9,4.713,7.916,7.916,0,0,0,5.727,1.928,14.805,14.805,0,0,0,4.776-.829V99.832Z" fill="#fff" fill-rule="evenodd"/><path d="M954.186,79.414a16.514,16.514,0,0,1-5.568.92c-5.49,0-8.61-3.236-8.61-7.872,0-5.356,3.95-7.793,8.412-7.793a15.109,15.109,0,0,1,5.806,1.119l1.541-5.834a18,18,0,0,0-7.623-1.358c-8.729,0-15.995,5.035-15.995,14.386,0,7.232,4.818,13.513,15.6,13.513a19.342,19.342,0,0,0,7.582-1.285l-1.145-5.8Zm23.657-10.15H967.022V65.149h11.492V59.075H959.557V86.009h19.55V79.935H967.022v-4.6h10.821V69.265Zm12.282,16.744V78.735c0-4.075-.039-7.991-.236-12.068h.158A115.893,115.893,0,0,0,995.181,77.1l4.817,8.91h8.175V59.075h-6.911v7.033a87.257,87.257,0,0,0,.513,10.95h-.119a77.83,77.83,0,0,0-4.7-10.19l-4.383-7.793h-9.361V86.009Zm29.068,0h7.466V65.229h7.66V59.075h-22.63v6.155h7.5V86.009Zm18.641-26.934V73.3c0,9.271,4.463,13.194,12.086,13.194,8.1,0,12.717-4.2,12.717-12.994V59.075h-7.465V73.7c0,4.435-1.54,6.952-4.937,6.952s-4.938-2.717-4.938-6.952V59.075Zm54.7,26.934h7.425l-1.224-26.934h-10.388l-2.094,6.714c-.829,2.677-1.816,6.674-2.686,10.07h-.157c-.592-3.4-1.422-7.113-2.173-9.99l-1.777-6.794H1068.8l-1.5,26.934h7.03l.4-10.03c.117-3.356.236-7.633.395-11.749h.078c.712,4,1.579,8.192,2.369,11.509l2.37,9.71h5.963l2.884-9.75c1.027-3.4,2.291-7.633,3.238-11.469h.12c0,4.676.04,8.393.118,11.749l.276,10.03Z" fill="#00aeef" fill-rule="evenodd"/><path d="M932.05,48.177c6.738-6.139,13.2-13.221,20.717-16.546,25.65-11.351,48.185,2.705,71.354,17.247,4.188,2.58,8.923,4.306,12.851.158,16.5-17.434,27.586-29,47.776-24.883l16.3,3.323-16.391-2.183c-21.326-2.84-33.86,15.62-48.379,29.291-3.214,3.026-9.673,0-13.128-1.995-22.6-13.053-44.536-26.014-69.116-14.107-6.769,3.279-12.519,9.95-18.534,15.771l-3.451-6.076Z" fill="#ffc20e" fill-rule="evenodd"/></g></svg>